<?xml version="1.0" encoding="UTF-8"?>
<svg width="23px" height="23px" viewBox="0 0 23 23" version="1.1" xmlns="http://www.w3.org/2000/svg" xmlns:xlink="http://www.w3.org/1999/xlink">
    <!-- Generator: Sketch 62 (91390) - https://sketch.com -->
    <title>iconfinder_wheel_208436</title>
    <desc>Created with Sketch.</desc>
    <g id="z" stroke="none" stroke-width="1" fill="none" fill-rule="evenodd">
        <g id="New-homepage" transform="translate(-333.000000, -61.000000)" fill="#FFFFFF" fill-rule="nonzero">
            <g id="iconfinder_wheel_208436" transform="translate(333.000000, 61.000000)">
                <path d="M22.0937563,13.294 L19.8800063,11.7774375 C19.6571938,11.6250625 19.6571938,11.3749375 19.8800063,11.221125 L22.0937563,9.7045625 C22.3165688,9.5521875 22.4459438,9.2115 22.3783813,8.949875 L21.7631313,7.029375 C21.6639438,6.7778125 21.3606313,6.578 21.0903813,6.5851875 L18.3979438,6.6599375 C18.1276938,6.667125 17.9796313,6.4644375 18.0716313,6.21 L18.9772563,3.66275 C19.0678188,3.406875 18.9729438,3.056125 18.7659438,2.8821875 L17.1530688,1.6948125 C16.9259438,1.5481875 16.5636938,1.564 16.3480688,1.727875 L14.1889438,3.3881875 C13.9747563,3.5549375 13.7375688,3.4773125 13.6599438,3.217125 L12.8836938,0.5793125 C12.8075063,0.319125 12.5243188,0.083375 12.2555063,0.0560625 C12.2555063,0.0560625 11.7178813,-1.45550239e-13 11.1903188,-1.45550239e-13 C10.7145063,-1.45550239e-13 10.2746313,0.0416875 10.2746313,0.0416875 C10.0058188,0.0675625 9.72263132,0.3004375 9.64644382,0.560625 L8.86300632,3.217125 C8.78681882,3.4773125 8.54963132,3.5549375 8.33400632,3.3881875 L6.11450632,1.6804375 C5.89888132,1.515125 5.53663132,1.497875 5.30806882,1.6430625 L3.72538132,2.783 C3.51694382,2.9540625 3.42063132,3.303375 3.51119382,3.55925 L4.45419382,6.21 C4.54331882,6.4644375 4.39669382,6.667125 4.12644382,6.6599375 L1.29169382,6.580875 C1.02144382,6.57225 0.718131324,6.7720625 0.617506324,7.023625 L0.018068824,8.863625 C-0.049493676,9.12525 0.078443824,9.4645 0.301256324,9.616875 L2.64294382,11.221125 C2.86575632,11.3735 2.86575632,11.623625 2.64294382,11.7774375 L0.301256324,13.383125 C0.078443824,13.5355 -0.049493676,13.87475 0.019506324,14.1378125 L0.618943824,15.976375 C0.719568824,16.2279375 1.02288132,16.4263125 1.29313132,16.419125 L4.12644382,16.3415 C4.39669382,16.332875 4.54475632,16.5355625 4.45419382,16.7914375 L3.51119382,19.4421875 C3.42063132,19.6980625 3.51694382,20.0459375 3.72538132,20.2184375 L5.30806882,21.358375 C5.53663132,21.5035625 5.90031882,21.4863125 6.11450632,21.321 L8.33400632,19.61325 C8.54819382,19.4479375 8.78681882,19.524125 8.86300632,19.7843125 L9.64644382,22.439375 C9.72263132,22.6995625 10.0058188,22.9324375 10.2760688,22.956875 C10.2760688,22.956875 10.7159438,22.9985625 11.1917563,22.9985625 C11.7193188,22.9985625 12.2569438,22.9425 12.2569438,22.9425 C12.5271938,22.91375 12.8089438,22.678 12.8851313,22.41925 L13.6613813,19.7814375 C13.7390063,19.52125 13.9761938,19.4450625 14.1903813,19.610375 L16.3495063,21.272125 C16.5636938,21.436 16.9259438,21.4518125 17.1545063,21.3051875 L18.7673813,20.1178125 C18.9758188,19.943875 19.0706938,19.593125 18.9786938,19.33725 L18.0730688,16.79 C17.9810688,16.534125 18.1291313,16.332875 18.3993813,16.3400625 L21.0918188,16.4148125 C21.3620688,16.422 21.6639438,16.2221875 21.7645688,15.970625 L22.3812563,14.04725 C22.4459438,13.7870625 22.3165688,13.446375 22.0937563,13.294 Z M11.1903188,15.755 C8.84000632,15.755 6.93388132,13.85175 6.93388132,11.5 C6.93388132,9.1496875 8.84000632,7.2435625 11.1903188,7.2435625 C13.5406313,7.2435625 15.4453188,9.1496875 15.4453188,11.5 C15.4453188,13.85175 13.5406313,15.755 11.1903188,15.755 Z" id="Shape"></path>
            </g>
        </g>
    </g>
</svg>